<?xml version="1.0" encoding="utf-8"?>
<!-- Generator: Adobe Illustrator 21.0.0, SVG Export Plug-In . SVG Version: 6.00 Build 0)  -->
<svg version="1.1" id="圖層_1" xmlns="http://www.w3.org/2000/svg" xmlns:xlink="http://www.w3.org/1999/xlink" x="0px" y="0px"
	 viewBox="0 0 92 16" style="enable-background:new 0 0 92 16;" xml:space="preserve">
<style type="text/css">
	.st0{fill:#FFFFFF;}
</style>
<g>
	<path class="st0" d="M2,14.9v-2H0v-2h4v2h6V9H2V7H0V3h2v-2h9.9v2h2v2h-4V3H4v4h7.9v2h2v4h-2v2H2z"/>
	<path class="st0" d="M20.1,14.9V3h-4v-2h12v2h-4v11.9H20.1z"/>
	<path class="st0" d="M30.7,14.9V1.1h14v2h-9.9v4h7.9v2h-7.9v4h9.9v2H30.7z"/>
	<path class="st0" d="M47.1,14.9v-2h4V7h-2V5h6V13h4v2H47.1z M51.1,3v-2h4v2H51.1z"/>
	<path class="st0" d="M78.1,14.9V5h2V3h2v-2h6v2h2v2h2v9.9h-4v-4h-6v4H78.1z M82.2,9h6V5h-2V3h-2v2h-2V9z"/>
	<path class="st0" d="M61.4,14.9V1.1h4v2h2v2h2v2h2v-6h4v13.9h-4v-4h-2V9h-2V7h-2v7.9H61.4z"/>
</g>
</svg>
